<?xml version="1.0" encoding="UTF-8" standalone="no"?>
<!-- Created with Inkscape (http://www.inkscape.org/) -->

<svg
   width="51.693821mm"
   height="28.941624mm"
   viewBox="0 0 51.693821 28.941624"
   version="1.1"
   id="svg5"
   sodipodi:docname="cip-logo-color.svg"
   inkscape:version="1.2.2 (b0a8486541, 2022-12-01)"
   xmlns:inkscape="http://www.inkscape.org/namespaces/inkscape"
   xmlns:sodipodi="http://sodipodi.sourceforge.net/DTD/sodipodi-0.dtd"
   xmlns="http://www.w3.org/2000/svg"
   xmlns:svg="http://www.w3.org/2000/svg">
  <sodipodi:namedview
     id="namedview7"
     pagecolor="#ffffff"
     bordercolor="#000000"
     borderopacity="0.25"
     inkscape:showpageshadow="2"
     inkscape:pageopacity="0.0"
     inkscape:pagecheckerboard="0"
     inkscape:deskcolor="#d1d1d1"
     inkscape:document-units="mm"
     showgrid="false"
     inkscape:zoom="5.2079925"
     inkscape:cx="87.461723"
     inkscape:cy="37.634463"
     inkscape:window-width="1906"
     inkscape:window-height="1040"
     inkscape:window-x="5"
     inkscape:window-y="31"
     inkscape:window-maximized="1"
     inkscape:current-layer="layer1" />
  <defs
     id="defs2" />
  <g
     inkscape:label="Layer 1"
     inkscape:groupmode="layer"
     id="layer1"
     transform="translate(-50.571123,-18.595082)">
    <g
       id="g4118">
      <path
         id="text288"
         style="font-style:normal;font-variant:normal;font-weight:normal;font-stretch:normal;font-size:25.4px;font-family:Santana-Black;-inkscape-font-specification:Santana-Black;fill:#006600;fill-opacity:1;stroke-width:0.264583"
         d="m 60.807708,18.595082 c -1.405465,0 -2.726417,0.194477 -3.962549,0.583943 -1.236132,0.389467 -2.319632,0.973932 -3.250964,1.752865 -0.931333,0.761999 -1.668335,1.710255 -2.210201,2.844787 -0.541866,1.134533 -0.812871,2.446579 -0.812871,3.936711 0,1.151466 0.194995,2.252258 0.584461,3.302124 0.4064,1.032932 1.01603,1.947636 1.828829,2.743502 0.812799,0.778932 1.845453,1.405339 3.098519,1.879472 1.269998,0.457199 2.768651,0.685746 4.495849,0.685746 1.168399,0 2.175889,-0.0933 3.022555,-0.27957 0.846666,-0.186266 1.447908,-0.363967 1.803507,-0.5333 0.0508,-0.03387 0.09326,-0.07632 0.127124,-0.127124 0.0508,-0.06773 0.06758,-0.135355 0.05064,-0.203089 L 64.87154,31.625294 c -0.03387,-0.1016 -0.0931,-0.169222 -0.177767,-0.203088 -0.06773,-0.0508 -0.143744,-0.05919 -0.22841,-0.02532 -0.372533,0.1524 -0.872084,0.287644 -1.498617,0.406177 -0.609599,0.1016 -1.227617,0.152445 -1.85415,0.152445 -1.625598,0 -2.878928,-0.423541 -3.759461,-1.270206 -0.863599,-0.846666 -1.295528,-1.938554 -1.295528,-3.276286 0,-0.778933 0.135761,-1.447797 0.406694,-2.006596 0.270933,-0.558799 0.626335,-1.024798 1.066601,-1.397331 0.4572,-0.372533 0.982432,-0.643537 1.575098,-0.81287 0.592666,-0.186266 1.219073,-0.279053 1.879472,-0.279053 0.761999,0 1.430863,0.06762 2.006596,0.203089 0.592666,0.118533 1.092217,0.27107 1.498616,0.457336 0.08467,0.03387 0.160677,0.03387 0.22841,0 0.08467,-0.0508 0.1439,-0.118938 0.177767,-0.203605 l 0.965316,-3.581177 c 0.03387,-0.169333 -0.01698,-0.2878 -0.152446,-0.355534 -0.423333,-0.237066 -1.067032,-0.43206 -1.930631,-0.58446 -0.863599,-0.169333 -1.853796,-0.253731 -2.971395,-0.253731 z" />
      <path
         id="text292"
         style="font-style:normal;font-variant:normal;font-weight:normal;font-stretch:normal;font-size:25.4px;font-family:Santana-Black;-inkscape-font-specification:Santana-Black;fill:#ff0000;fill-opacity:1;stroke-width:0.26436"
         d="m 69.187894,29.71051 c -0.812799,0 -1.574966,0.126641 -2.286166,0.380213 -0.711199,0.236668 -1.337605,0.600361 -1.879471,1.0906 l -0.0078,-0.07223 c -0.02078,0.02055 -0.04344,0.03922 -0.06821,0.05572 -0.355598,0.169047 -0.956842,0.34645 -1.803507,0.532402 -0.792795,0.174124 -1.728562,0.265422 -2.803447,0.276519 0.0046,0.182349 0.0093,0.364548 0.0093,0.551491 0.01693,0.507144 0.02532,1.157617 0.02532,1.952142 v 12.780241 c 0,0.185952 0.0933,0.279098 0.279569,0.279098 h 4.647778 c 0.2032,0 0.304891,-0.09314 0.304891,-0.279098 v -5.122311 c 0.338667,0.236667 0.753819,0.431332 1.244886,0.583476 0.491066,0.152143 1.058238,0.228025 1.701705,0.228025 0.728132,0 1.464618,-0.135016 2.209684,-0.405493 0.761999,-0.270477 1.439251,-0.684929 2.031917,-1.242788 0.592666,-0.574763 1.075441,-1.28437 1.447974,-2.12961 0.389466,-0.862145 0.583943,-1.876828 0.583943,-3.043259 0,-1.098811 -0.177701,-2.053844 -0.5333,-2.865274 -0.3556,-0.81143 -0.804305,-1.479168 -1.346171,-2.003217 -0.541867,-0.524048 -1.151497,-0.912864 -1.828829,-1.166436 -0.6604,-0.253572 -1.303582,-0.380213 -1.930115,-0.380213 z m -1.752865,4.108063 c 0.7112,0 1.227527,0.253283 1.54926,0.760428 0.338666,0.490239 0.507979,1.090468 0.507979,1.800469 0,0.794526 -0.194477,1.411503 -0.583944,1.851028 -0.372533,0.439525 -0.880472,0.659312 -1.523938,0.659312 -0.474132,0 -0.871992,-0.152279 -1.193725,-0.456566 -0.3048,-0.304287 -0.491406,-0.650716 -0.559139,-1.039526 -0.01693,-0.101429 -0.02532,-0.202949 -0.02532,-0.304378 v -0.304377 -0.887338 -0.202746 c 0,-0.06762 0.0084,-0.144017 0.02532,-0.228541 0.0508,-0.456429 0.245794,-0.845245 0.58446,-1.166436 0.3556,-0.321191 0.761848,-0.481329 1.219047,-0.481329 z" />
      <g
         aria-label="in"
         id="text296"
         style="font-size:7.76111px;font-family:Santana-Black;-inkscape-font-specification:Santana-Black;stroke-width:0.264583">
        <path
           d="m 60.352276,29.880636 q 0.08537,0 0.08537,-0.09313 v -3.686527 q 0,-0.09313 -0.08537,-0.09313 h -1.420283 q -0.08537,0 -0.08537,0.09313 v 3.686527 q 0,0.09313 0.08537,0.09313 z m -0.706261,-4.066821 q 0.411339,0 0.636411,-0.225073 0.225072,-0.232833 0.217311,-0.558799 0,-0.325967 -0.225072,-0.543278 -0.217311,-0.225072 -0.62865,-0.225072 -0.411339,0 -0.636411,0.225072 -0.217311,0.217311 -0.217311,0.543278 0,0.325966 0.217311,0.558799 0.225072,0.225073 0.636411,0.225073 z"
           id="path4072" />
        <path
           d="m 61.283609,29.787503 q 0,0.09313 0.09313,0.09313 h 1.420284 q 0.08537,0 0.08537,-0.09313 V 27.73857 q 0,-0.05433 0,-0.108656 0.0078,-0.06209 0.02328,-0.100894 0.03881,-0.08537 0.131939,-0.194028 0.09313,-0.108655 0.2794,-0.108655 0.217311,0 0.325967,0.178505 0.116416,0.170745 0.116416,0.465667 0,0 0,0.124178 0,0.116416 -0.0078,0.294922 0,0.178505 0,0.388055 0,0.201789 0,0.372533 0,0.310445 0.06209,0.535517 0.06985,0.217311 0.124178,0.310444 0.05433,0.09313 0.06209,0.100895 0.03104,0.03104 0.07761,0.03104 l 1.420283,-0.147461 q 0.05433,-0.0078 0.06985,-0.04657 0.02328,-0.03881 0,-0.07761 -0.0078,-0.01552 -0.05433,-0.124177 -0.04657,-0.108656 -0.108656,-0.2794 -0.05433,-0.178506 -0.05433,-0.302684 v -1.389238 q 0,-0.861483 -0.411339,-1.296106 -0.403578,-0.442383 -1.109839,-0.442383 -0.225072,0 -0.403578,0.04657 -0.178505,0.04657 -0.318205,0.116417 -0.1397,0.06985 -0.240594,0.155222 -0.100895,0.08537 -0.170745,0.155222 l -0.03881,-0.302683 q -0.01552,-0.08537 -0.08537,-0.08537 h -1.226255 q -0.08537,0 -0.08537,0.100895 0.0078,0.248355 0.01552,0.566561 0.0078,0.310444 0.0078,0.706261 z"
           id="path4074" />
      </g>
      <g
         aria-label="ortugal"
         id="text416"
         style="font-size:7.7611px;font-family:Santana-Black;-inkscape-font-specification:Santana-Black;fill:#ff0000;stroke-width:0.264583">
        <path
           d="m 77.566885,38.98356 q 0.465666,0 0.869244,-0.1397 0.411338,-0.1397 0.714021,-0.403577 0.310444,-0.263878 0.481188,-0.644171 0.178505,-0.388055 0.178505,-0.884766 0,-0.434621 -0.162983,-0.799393 -0.155222,-0.364772 -0.442383,-0.620888 -0.279399,-0.263877 -0.682976,-0.411338 -0.395816,-0.147461 -0.869243,-0.147461 -0.5588,0 -0.98566,0.155222 -0.426861,0.155222 -0.721782,0.434621 -0.287161,0.271639 -0.442383,0.644172 -0.147461,0.372532 -0.147461,0.814915 0,0.481188 0.170744,0.853721 0.178505,0.372533 0.481188,0.628649 0.302683,0.256116 0.698499,0.388055 0.403578,0.131939 0.861482,0.131939 z m 0.01552,-1.164165 q -0.294922,0 -0.434622,-0.256116 -0.1397,-0.256117 -0.1397,-0.605366 0,-0.162983 0.03104,-0.318205 0.03104,-0.162983 0.100894,-0.2794 0.06985,-0.124178 0.178505,-0.194027 0.108656,-0.07761 0.271639,-0.07761 0.28716,0 0.419099,0.263877 0.1397,0.256116 0.1397,0.605366 0,0.419099 -0.155222,0.644171 -0.147461,0.217311 -0.411338,0.217311 z"
           id="path4077"
           style="fill:#ff0000" />
        <path
           d="m 80.461782,38.797293 q 0,0.09313 0.09313,0.09313 h 1.41252 q 0.09313,0 0.09313,-0.09313 v -1.831619 q 0,-0.03881 0,-0.08537 0,-0.04657 0.0078,-0.08537 0.03881,-0.170745 0.20955,-0.2794 0.178505,-0.116416 0.504471,-0.116416 0.100895,0 0.186267,0.01552 0.08537,0.01552 0.162983,0.03104 0.04657,0.01552 0.07761,-0.01552 0.03881,-0.03104 0.03881,-0.07761 v -1.311626 q 0,-0.07761 -0.06985,-0.09313 -0.07761,-0.01552 -0.139699,-0.01552 -0.05433,0 -0.162983,0 -0.240594,0 -0.535516,0.131938 -0.294922,0.124178 -0.496711,0.457905 l -0.02328,-0.419099 q 0,-0.03881 -0.03104,-0.06209 -0.02328,-0.02328 -0.06209,-0.02328 H 80.52387 q -0.0388,0 -0.06985,0.03104 -0.03104,0.03104 -0.02328,0.06985 0.01552,0.20955 0.02328,0.488949 0.0078,0.2794 0.0078,0.768349 z"
           id="path4079"
           style="fill:#ff0000" />
        <path
           d="m 84.024121,34.311378 q -0.06985,0.01552 -0.06985,0.09313 v 0.613127 h -0.372533 q -0.09313,0 -0.09313,0.09313 v 1.047749 q 0,0.09313 0.09313,0.09313 h 0.372533 v 1.109837 q 0,0.838199 0.364771,1.218493 0.155222,0.162983 0.426861,0.28716 0.271638,0.116417 0.613127,0.116417 0.279399,0 0.512232,-0.03881 0.232833,-0.03104 0.364772,-0.08537 0.06209,-0.03104 0.06209,-0.08537 V 37.71073 q 0,-0.04657 -0.03881,-0.06985 -0.03104,-0.03104 -0.07761,-0.01552 -0.08537,0.01552 -0.139699,0.02328 -0.05433,0 -0.170745,0 -0.225071,0 -0.294921,-0.131939 -0.06985,-0.1397 -0.06985,-0.434622 v -0.830437 h 0.690738 q 0.09313,0 0.09313,-0.09313 v -1.047749 q 0,-0.09313 -0.09313,-0.09313 h -0.690738 v -0.977899 q 0,-0.0388 -0.03104,-0.06985 -0.03104,-0.03104 -0.07761,-0.01552 z"
           id="path4081"
           style="fill:#ff0000" />
        <path
           d="m 90.993593,35.110771 q 0,-0.09313 -0.09313,-0.09313 h -1.41252 q -0.09313,0 -0.09313,0.09313 v 2.11878 q 0,0.03881 0,0.06985 0,0.03104 -0.01552,0.06209 -0.0388,0.09313 -0.131938,0.201789 -0.09313,0.108655 -0.287161,0.108655 -0.434622,0 -0.434622,-0.644171 v -1.916992 q 0,-0.09313 -0.09313,-0.09313 h -1.41252 q -0.09313,0 -0.09313,0.09313 v 2.165347 q 0,0.861482 0.403577,1.288342 0.403577,0.4191 1.086554,0.4191 0.232833,0 0.419099,-0.04657 0.186267,-0.04657 0.325967,-0.116416 0.139699,-0.07761 0.240594,-0.162983 0.100894,-0.08537 0.170744,-0.162983 l 0.04657,0.465666 q 0,0.03881 0.03105,0.06209 0.03104,0.02328 0.06985,0.01552 l 1.218492,-0.147461 q 0.08537,-0.01552 0.08537,-0.100895 -0.01552,-0.21731 -0.02328,-0.527754 -0.0078,-0.318206 -0.0078,-0.745066 z"
           id="path4083"
           style="fill:#ff0000" />
        <path
           d="m 92.972678,37.796112 q 0.108655,0.03104 0.21731,0.06985 0.116417,0.03881 0.201789,0.03881 0.357011,0 0.644171,-0.116417 0.294922,-0.116416 0.504472,-0.318205 0.209549,-0.201788 0.318205,-0.473427 0.116416,-0.271638 0.116416,-0.582082 v -0.03104 q 0,-0.07761 -0.0078,-0.201788 -0.0078,-0.124178 -0.06985,-0.225072 0.100895,-0.116417 0.170745,-0.20955 0.06985,-0.09313 0.116416,-0.186266 0.04657,-0.100894 0.08537,-0.225072 0.03881,-0.124178 0.09313,-0.294922 0.01552,-0.0388 0,-0.06985 -0.01552,-0.03104 -0.0388,-0.03881 l -0.682977,-0.302683 q -0.04657,-0.01552 -0.08537,0.0078 -0.03881,0.01552 -0.04657,0.06209 -0.01552,0.07761 -0.08537,0.209549 -0.06209,0.131939 -0.116416,0.225072 -0.04657,0.08537 -0.05433,0.100895 -0.01552,-0.0078 -0.131939,-0.06985 -0.108655,-0.06985 -0.310444,-0.147461 -0.194027,-0.07761 -0.380294,-0.07761 -0.504471,0 -0.838198,0.108655 -0.333728,0.100895 -0.535516,0.287161 -0.201789,0.186266 -0.287161,0.434622 -0.08537,0.240594 -0.08537,0.519993 0,0.201789 0.04657,0.442383 0.04657,0.240594 0.263877,0.473427 -0.325966,0.333727 -0.450144,0.597605 -0.116416,0.263877 -0.116416,0.49671 0,0.201789 0.08537,0.372533 0.08537,0.170744 0.240594,0.325966 0.124178,0.131939 0.2794,0.217311 0.162983,0.08537 0.333727,0.1397 0.170744,0.05433 0.333727,0.08537 0.170744,0.0388 0.325966,0.06209 0.170745,0.03104 0.310444,0.06209 0.1397,0.03105 0.194028,0.09313 0.04657,0.0388 -0.05433,0.225071 -0.100894,0.186267 -0.318205,0.457905 -0.03881,0.03881 -0.02328,0.07761 0.01552,0.04657 0.06209,0.06209 l 1.047748,0.318205 q 0.05433,0.01552 0.09313,-0.02328 0.357011,-0.357011 0.519994,-0.659694 0.162983,-0.302682 0.162983,-0.582082 0,-0.108655 -0.0078,-0.201789 0,-0.09313 -0.03881,-0.186266 -0.03104,-0.09313 -0.108655,-0.186266 -0.07761,-0.09313 -0.217311,-0.201789 -0.318205,-0.240594 -0.620888,-0.333727 -0.302683,-0.100895 -0.63641,-0.194028 -0.248355,-0.06985 -0.403577,-0.108655 -0.147461,-0.04657 -0.20955,-0.116417 -0.02328,-0.01552 -0.02328,-0.05433 0.0078,-0.04657 0.116416,-0.186267 0.02328,0.0078 0.04657,0.01552 0.02328,0.0078 0.05433,0.01552 z m 0.395816,-1.909231 q 0.139699,0 0.225072,0.155222 0.09313,0.155222 0.09313,0.333727 0,0.232833 -0.08537,0.372533 -0.07761,0.131939 -0.225072,0.131939 -0.162983,0 -0.240594,-0.147461 -0.07761,-0.155222 -0.07761,-0.333727 0,-0.08537 0.01552,-0.178506 0.01552,-0.09313 0.05433,-0.162983 0.0388,-0.07761 0.09313,-0.124177 0.06209,-0.04657 0.147461,-0.04657 z"
           id="path4085"
           style="fill:#ff0000" />
        <path
           d="m 99.111711,36.647469 q 0,-0.388055 -0.108656,-0.70626 -0.108655,-0.318205 -0.341488,-0.543277 -0.232833,-0.225072 -0.597605,-0.341489 -0.35701,-0.124177 -0.853721,-0.124177 -0.535516,0 -0.939093,0.08537 -0.0388,0.0078 -0.06209,0.03881 -0.02328,0.03104 -0.01552,0.06985 l 0.155222,0.91581 q 0.0078,0.03881 0.03881,0.06209 0.03104,0.02328 0.06985,0.0078 0.271638,-0.06209 0.504471,-0.06209 0.248355,0 0.364772,0.03881 0.116416,0.03104 0.162983,0.07761 -0.519994,0.01552 -0.939093,0.124177 -0.411339,0.100894 -0.70626,0.294922 -0.287161,0.186266 -0.450144,0.473427 -0.155222,0.287161 -0.155222,0.667455 0,0.240594 0.09313,0.473427 0.09313,0.225072 0.263877,0.403577 0.178506,0.170744 0.434622,0.2794 0.263877,0.100894 0.589844,0.100894 0.294921,0 0.558799,-0.07761 0.271638,-0.07761 0.481188,-0.256116 l 0.05433,0.318205 q 0,0.03104 0.03104,0.05433 0.03104,0.02328 0.06209,0.01552 l 1.280581,-0.147461 q 0.03881,-0.0078 0.06209,-0.03881 0.02328,-0.03881 0.01552,-0.07761 -0.0388,-0.124177 -0.04657,-0.364772 -0.0078,-0.240594 -0.0078,-0.527754 z m -1.55222,0.690738 q 0,0.04657 0,0.09313 0,0.03881 -0.01552,0.08537 -0.03881,0.131939 -0.155222,0.225072 -0.116416,0.09313 -0.256116,0.09313 -0.310444,0 -0.310444,-0.240594 0,-0.34925 0.737305,-0.372533 z"
           id="path4087"
           style="fill:#ff0000" />
        <path
           d="m 102.26273,37.780589 q 0.0155,-0.09313 -0.0776,-0.108655 -0.48119,-0.03104 -0.6597,-0.217311 -0.10865,-0.108655 -0.15522,-0.35701 -0.0466,-0.256117 -0.0466,-0.783872 v -2.887129 q 0,-0.08537 -0.0931,-0.08537 h -1.420279 q -0.08537,0 -0.08537,0.08537 v 3.205335 q 0,0.659693 0.147461,1.086554 0.155218,0.42686 0.434618,0.690737 0.29492,0.2794 0.73731,0.411339 0.44238,0.131938 0.98566,0.131938 0.0776,0 0.0931,-0.08537 z"
           id="path4089"
           style="fill:#ff0000" />
      </g>
    </g>
  </g>
</svg>
